# xmcd
#
# Track frame offsets: 
#        150
#        23320
#        38952
#        55722
#        72740
#        88670
#        105775
#        123302
#        143882
#        160375
#        178950
#        195295
#        211252
#        228150
#        250247
#        275855
#
# Disc length: 4033 seconds
#
# Revision: 0
# Processed by: cddbd v1.5.2PL0 Copyright (c) Steve Scherf et al.
# Submitted via: ExactAudioCopy v1.0b2
#
DISCID=db0fbf10
DTITLE=Vivian - Pasión 
DYEAR=2000
DGENRE=Latin
TTITLE0=Conga Feeling (Granada Club)
TTITLE1=Samba Dulce (Radio Edit)
TTITLE2=Hey Amigo! (Radio Edit Pop)
TTITLE3=Chico's Tango (Radio Edit Groove)
TTITLE4=Café Café (Radio Edit)
TTITLE5=La Rumba
TTITLE6=Aea Todos!!
TTITLE7=There's No Sun Without You
TTITLE8=Cuba Te Quiero (Break It!)[Radio Edit]
TTITLE9=Me Voy Pa' Cuba
TTITLE10=Waiting For Your Sunshine
TTITLE11=I Wanna Take You With Me
TTITLE12=Conga Feeling (Radio Edit)
TTITLE13=Samba Dulce (Rio Batida Club)
TTITLE14=Het Amigo! (En La Catedral Club)
TTITLE15=Café Café (Café Ole Club)
EXTD=
EXTT0=
EXTT1=
EXTT2=
EXTT3=
EXTT4=
EXTT5=
EXTT6=
EXTT7=
EXTT8=
EXTT9=
EXTT10=
EXTT11=
EXTT12=
EXTT13=
EXTT14=
EXTT15=
PLAYORDER=
